<svg viewBox="0 0 1200 1200" xmlns:xlink="http://www.w3.org/1999/xlink" xmlns="http://www.w3.org/2000/svg"><defs><style>.cls-1{opacity:0.17;fill:url(#未命名的渐变_33);}.cls-11,.cls-2,.cls-3,.cls-4,.cls-5,.cls-6{opacity:0.3;}.cls-2{fill:url(#未命名的渐变_33-2);}.cls-3{fill:url(#未命名的渐变_33-3);}.cls-4{fill:url(#未命名的渐变_33-4);}.cls-5{fill:url(#未命名的渐变_162);}.cls-6{fill:url(#未命名的渐变_162-2);}.cls-7{fill:url(#未命名的渐变_69);}.cls-8{fill:#fff;}.cls-9{opacity:0.5;fill:url(#未命名的渐变_156);}.cls-10{fill:#c4f2e2;}.cls-11{fill:url(#未命名的渐变_33-5);}</style><linearGradient gradientUnits="userSpaceOnUse" y2="807.25" x2="601.79" y1="1106.1" x1="601.79" id="未命名的渐变_33"><stop stop-opacity="0" stop-color="#fff" offset="0"></stop><stop stop-color="#4be2ac" offset="0.77"></stop></linearGradient><linearGradient xlink:href="#未命名的渐变_33" y2="219.5" x2="938.64" y1="382.21" x1="938.64" id="未命名的渐变_33-2"></linearGradient><linearGradient xlink:href="#未命名的渐变_33" y2="425.38" x2="214.75" y1="588.09" x1="214.75" id="未命名的渐变_33-3"></linearGradient><linearGradient xlink:href="#未命名的渐变_33" y2="591.41" x2="1020.99" y1="687.71" x1="1020.99" id="未命名的渐变_33-4"></linearGradient><linearGradient gradientUnits="userSpaceOnUse" y2="355.65" x2="1113.16" y1="395.5" x1="1113.16" id="未命名的渐变_162"><stop stop-opacity="0.4" stop-color="#6de7bb" offset="0"></stop><stop stop-color="#55e2ac" offset="0.77"></stop></linearGradient><linearGradient xlink:href="#未命名的渐变_162" y2="222.83" x2="292.97" y1="289.24" x1="292.97" id="未命名的渐变_162-2"></linearGradient><linearGradient gradientUnits="userSpaceOnUse" y2="837.04" x2="613.54" y1="885.34" x1="613.54" id="未命名的渐变_69"><stop stop-opacity="0.02" stop-color="#009eaa" offset="0"></stop><stop stop-opacity="0.2" stop-color="#004c55" offset="0.77"></stop></linearGradient><linearGradient gradientUnits="userSpaceOnUse" y2="850.45" x2="628.74" y1="372.66" x1="628.74" id="未命名的渐变_156"><stop stop-opacity="0.62" stop-color="#6de7bb" offset="0"></stop><stop stop-color="#55e2ac" offset="0.77"></stop></linearGradient><linearGradient xlink:href="#未命名的渐变_33" y2="372.66" x2="648.49" y1="850.45" x1="648.49" id="未命名的渐变_33-5"></linearGradient></defs><g id="图层_1"><path d="M1201,1106.1c-21.33-166.95-281.43-298.85-599.21-298.85S23.91,939.15,2.57,1106.1Z" class="cls-1"></path><path d="M1003.73,382.21a58.58,58.58,0,0,0,0-117.15c-1.1,0-2.13.27-3.21.33a64.66,64.66,0,0,0-123.75,0c-1.08-.06-2.11-.33-3.21-.33a58.58,58.58,0,1,0,0,117.15Z" class="cls-2"></path><path d="M279.84,588.09a58.58,58.58,0,0,0,0-117.15c-1.1,0-2.13.26-3.21.32a64.66,64.66,0,0,0-123.75,0c-1.09-.06-2.11-.32-3.21-.32a58.58,58.58,0,1,0,0,117.15Z" class="cls-3"></path><path d="M1059.51,687.71a34.67,34.67,0,1,0,0-69.33c-.65,0-1.26.15-1.9.19a38.26,38.26,0,0,0-73.23,0c-.65,0-1.25-.19-1.9-.19a34.67,34.67,0,1,0,0,69.33Z" class="cls-4"></path><circle r="19.92" cy="375.57" cx="1113.16" class="cls-5"></circle><circle r="33.21" cy="256.03" cx="292.97" class="cls-6"></circle><ellipse ry="24.15" rx="219.83" cy="861.19" cx="613.54" class="cls-7"></ellipse><path d="M757.08,372.66H500.39a74.69,74.69,0,0,0-74.69,74.7v328.4a74.68,74.68,0,0,0,74.69,74.69H757.08a74.69,74.69,0,0,0,74.7-74.69V447.36A74.69,74.69,0,0,0,757.08,372.66Z" class="cls-8"></path><path d="M757.08,372.66H500.39a74.69,74.69,0,0,0-74.69,74.7v328.4a74.68,74.68,0,0,0,74.69,74.69H757.08a74.69,74.69,0,0,0,74.7-74.69V447.36A74.69,74.69,0,0,0,757.08,372.66Z" class="cls-9"></path><path d="M725.34,372.66H468.65a74.69,74.69,0,0,0-74.7,74.7v328.4a74.69,74.69,0,0,0,74.7,74.69H725.34A74.69,74.69,0,0,0,800,775.76V447.36A74.69,74.69,0,0,0,725.34,372.66Z" class="cls-10"></path><path d="M725.34,372.66H640.71L496.94,850.45h228.4A74.69,74.69,0,0,0,800,775.76V447.36A74.69,74.69,0,0,0,725.34,372.66Z" class="cls-11"></path><path d="M468.65,372.66a74.69,74.69,0,0,0-74.7,74.7v328.4a74.69,74.69,0,0,0,74.7,74.69h28.29L640.71,372.66Z" class="cls-10"></path><path d="M718.59,676.67c10.8,0,19.55,10.28,19.55,23s-8.75,23-19.55,23H563.44c-10.79,0-19.54-10.29-19.54-23s8.75-23,19.54-23Z" class="cls-8"></path><path d="M493.89,676.1a23.78,23.78,0,0,1,3.28.24,23.6,23.6,0,0,1,0,46.63,23.78,23.78,0,0,1-3.28.23,23.55,23.55,0,0,1,0-47.1Z" class="cls-8"></path><path d="M718.59,582.23c10.8,0,19.55,10.28,19.55,23s-8.75,23-19.55,23H563.44c-10.79,0-19.54-10.29-19.54-23s8.75-23,19.54-23Z" class="cls-8"></path><path d="M493.89,581.66a23.78,23.78,0,0,1,3.28.24,23.6,23.6,0,0,1,0,46.63,23.78,23.78,0,0,1-3.28.23,23.55,23.55,0,0,1,0-47.1Z" class="cls-8"></path><path d="M718.59,487.79c10.8,0,19.55,10.28,19.55,23s-8.75,23-19.55,23H563.44c-10.79,0-19.54-10.29-19.54-23s8.75-23,19.54-23Z" class="cls-8"></path><path d="M493.89,487.22a23.78,23.78,0,0,1,3.28.24,23.6,23.6,0,0,1,0,46.63,23.78,23.78,0,0,1-3.28.23,23.55,23.55,0,0,1,0-47.1Z" class="cls-8"></path></g></svg>