<svg t="1655805917041" class="icon" viewBox="0 0 1024 1024" version="1.1" xmlns="http://www.w3.org/2000/svg" p-id="3164" width="200" height="200"><path d="M529.9712 347.2896s-247.6544 38.3488-289.4848-126.1568S397.4656 33.536 466.3296 121.6c56.832 72.6528 63.0784 174.2848 63.6416 225.6896z" fill="#F498A6" p-id="3165"></path><path d="M494.7968 347.2896s247.6544 38.3488 289.4848-126.1568c41.8304-164.5056-156.9792-187.5968-225.8944-99.5328-56.7808 72.6528-62.976 174.2848-63.5904 225.6896z" fill="#F498A6" p-id="3166"></path><path d="M512.3584 349.2864c11.0592-0.9728 17.5616-1.9968 17.5616-1.9968-0.3584-31.3856-2.816-81.408-17.5616-132.1472-14.7456 50.7392-17.2032 100.7616-17.5616 132.1472 0 0 6.5536 1.024 17.5616 1.9968zM742.1952 952.2688H280.9344c-73.5232 0-133.12-59.5968-133.12-133.12V456.96c0-42.0352 34.0992-76.1344 76.1344-76.1344h575.1808c42.0352 0 76.1344 34.0992 76.1344 76.1344V819.2c0.0512 73.472-59.5456 133.0688-133.0688 133.0688z" fill="#F85F69" p-id="3167"></path><path d="M866.6624 544.8192H156.5184c-43.7248 0-79.1552-35.4304-79.1552-79.1552v-86.528c0-43.7248 35.4304-79.1552 79.1552-79.1552h710.144c43.7248 0 79.1552 35.4304 79.1552 79.1552v86.528c0 43.7248-35.4816 79.1552-79.1552 79.1552z" fill="#F85F69" p-id="3168"></path><path d="M799.1808 375.7056H223.9488c-42.0352 0-76.1344 30.3616-76.1344 67.7376v100.9152c2.8672 0.256 5.7344 0.4608 8.6528 0.4608h710.144c2.9184 0 5.8368-0.1536 8.6528-0.4608V443.4432c0.0512-37.376-34.048-67.7376-76.0832-67.7376z" fill="#F33B3D" p-id="3169"></path><path d="M460.032 299.9296h103.0656V952.32H460.032z" fill="#F498A6" p-id="3170"></path></svg>