<svg t="1654340878581" class="icon" viewBox="0 0 1024 1024" version="1.1" xmlns="http://www.w3.org/2000/svg" p-id="18452" width="200" height="200"><path d="M684.44842667 104.67555555c32.27079111 0 58.48860445 25.39975111 58.48860444 56.67953778v187.57745778c-4.89358222-0.58140445-10.36856889-0.58140445-15.26215111-0.58140444-91.40451555 0-165.15072 66.11968-165.15072 154.08469333 0 49.51495111 24.34616889 96.17749333 64.60416 126.29333333 1.22197333 25.92426667-1.16849778 76.72376889-38.44892445 95.53692445H536.95146667c-35.30296889 0-63.96472889 27.78680889-63.96472889 61.98385777v122.80035556H162.02638222c-32.27534222 0-58.48860445-25.40088889-58.48860444-56.68067556V161.35509333C103.53777778 130.07530667 129.75104 104.67555555 162.02638222 104.67555555h522.42204445zM368.71054222 511.87143111H236.35512889c-14.93788445 0.21731555-27.03473778 12.20835555-27.37720889 27.14624 0 15.32017778 12.11505778 27.14510222 27.37720889 27.14510222h132.24049778c15.0528 0.03640889 27.30666667-12.09344 27.43523555-27.14510222a27.03587555 27.03587555 0 0 0-7.99516444-19.31264 27.0336 27.0336 0 0 0-19.38204445-7.83473778h0.05688889z m71.30225778-135.72892444H236.35512889a26.90503111 26.90503111 0 0 0-27.37720889 26.55914666c0 14.74218667 12.11505778 26.56483555 27.37720889 26.56483556H439.95591111c15.20412445 0 27.37720889-11.82264889 27.37720889-26.56483556a26.90389333 26.90389333 0 0 0-27.37720889-26.55914666h0.05688889z m109.69429333-136.31601778H236.41770667a26.94144 26.94144 0 0 0-19.21365334 7.59125333 26.92892445 26.92892445 0 0 0-8.16810666 18.97358223c0 14.73763555 12.11505778 26.55914667 27.38176 26.55914666h313.28938666c15.26215111 0 27.43978667-11.82151111 27.43978667-26.55914666a26.93006222 26.93006222 0 0 0-8.17379555-18.97358223 26.92323555 26.92323555 0 0 0-19.20910223-7.59125333h-0.05688889z m0 0" fill="#1D92FF" p-id="18453"></path><path d="M737.57809778 418.67832889c43.27992889 2.91043555 80.44885333 33.61336889 90.17799111 74.91470222 9.12839111 39.51616-7.42172445 80.52963555-41.41738667 102.64462222l-9.78716444 5.9392-1.16849778 11.18663112c-4.31104 32.44828445-11.64856889 140.45184 78.64433778 175.92888888l4.83555555 1.74535112h47.53294222c6.70264889 0 11.59509333 5.24401778 11.59509334 11.1866311v105.61308445c0 11.24465778-4.25301333 12.40974222-9.72913778 12.40974222H555.29813333c-6.28053333 0.09784889-11.46197333-4.90268445-11.59168-11.18663111V802.22435555c0-6.46599111 5.53301333-11.24465778 11.64856889-11.24465777h53.01361778l4.25301333-1.74648889c93.20448-36.58524445 82.25336889-150.47111111 79.22688-172.89784889l-1.80906666-11.82606222-10.36856889-5.88458667a97.28910222 97.28910222 0 0 1-49.40003556-83.18634666c0-53.71221333 45.14702222-96.81806222 99.96401778-96.81806223h7.34208v0.05802667z" fill="#FF9E12" p-id="18454"></path></svg>