<svg t="1653913812641" class="icon" viewBox="0 0 1024 1024" version="1.1" xmlns="http://www.w3.org/2000/svg" p-id="3685" width="200" height="200"><path d="M515.4816 522.5984m-384.4608 0a384.4608 384.4608 0 1 0 768.9216 0 384.4608 384.4608 0 1 0-768.9216 0Z" fill="#F85F69" p-id="3686"></path><path d="M782.9504 942.3872c-12.6464 0-24.8832-6.7072-31.3856-18.5344L670.72 777.4208a35.82976 35.82976 0 0 1 62.72-34.6624l80.8448 146.432c9.5744 17.3056 3.2768 39.1168-14.0288 48.6912-5.5296 3.072-11.4688 4.5056-17.3056 4.5056z" fill="#F85F69" p-id="3687"></path><path d="M733.44 742.8096c-9.5744-17.3056-31.3856-23.6032-48.6912-14.0288s-23.6032 31.3856-14.0288 48.6912l41.6256 75.4176c20.7872-12.4416 40.2944-26.7264 58.2656-42.752l-37.1712-67.328z" fill="#F33B3D" p-id="3688"></path><path d="M252.7232 942.3872c12.6464 0 24.8832-6.7072 31.3856-18.5344l80.8448-146.432a35.82976 35.82976 0 0 0-62.72-34.6624l-80.8448 146.432c-9.5744 17.3056-3.2768 39.1168 14.0288 48.6912 5.5296 3.072 11.4688 4.5056 17.3056 4.5056z" fill="#F85F69" p-id="3689"></path><path d="M350.9248 728.7296a35.82976 35.82976 0 0 0-48.6912 14.0288l-38.7072 70.0928c18.1248 15.7696 37.7856 29.8496 58.6752 42.0352l42.8032-77.4656c9.5744-17.3056 3.2768-39.1168-14.08-48.6912z" fill="#F33B3D" p-id="3690"></path><path d="M258.4576 250.7264m-165.5296 0a165.5296 165.5296 0 1 0 331.0592 0 165.5296 165.5296 0 1 0-331.0592 0Z" fill="#F85F69" p-id="3691"></path><path d="M157.6448 382.0032a164.608 164.608 0 0 0 100.8128 34.304c91.4432 0 165.5296-74.1376 165.5296-165.5296 0-34.6112-10.6496-66.7648-28.8256-93.2864-108.6464 35.7376-195.84 118.6304-237.5168 224.512z" fill="#F33B3D" p-id="3692"></path><path d="M776.96 250.7264m-165.5296 0a165.5296 165.5296 0 1 0 331.0592 0 165.5296 165.5296 0 1 0-331.0592 0Z" fill="#F85F69" p-id="3693"></path><path d="M639.3856 158.6688a164.67456 164.67456 0 0 0-27.9552 92.0576c0 91.4432 74.1376 165.5296 165.5296 165.5296 36.4032 0 70.0416-11.776 97.3312-31.6928-40.7552-105.8816-127.0272-189.184-234.9056-225.8944z" fill="#F33B3D" p-id="3694"></path><path d="M447.2832 708.864c-11.5712 0-23.0912-4.864-31.1808-14.3872-14.6944-17.2032-12.5952-43.0592 4.608-57.7536l84.5312-72.0384-69.5296-10.3936a47.2832 47.2832 0 0 1-38.0416-32 47.3344 47.3344 0 0 1 11.264-48.4352l119.808-121.3952c15.872-16.0768 41.8304-16.2816 57.9072-0.3584 16.0768 15.872 16.2816 41.8304 0.3584 57.9072l-72.2944 73.2672 77.312 11.5712c18.3808 2.7648 33.536 16.0768 38.656 33.9456s-0.7168 37.1712-14.848 49.2544l-142.08 121.088a40.69376 40.69376 0 0 1-26.4704 9.728z" fill="#FFFFFF" p-id="3695"></path></svg>