<svg t="1653622192088" class="icon" viewBox="0 0 1024 1024" version="1.1" xmlns="http://www.w3.org/2000/svg" p-id="3685" width="200" height="200"><path d="M690.8928 941.824H233.4208c-73.5232 0-133.12-59.5968-133.12-133.12V223.4368c0-73.5232 59.5968-133.12 133.12-133.12h457.472c73.5232 0 133.12 59.5968 133.12 133.12v585.2672c0 73.5232-59.5968 133.12-133.12 133.12z" fill="#4BE2AC" p-id="3686"></path><path d="M626.1248 332.032h-325.12c-22.6304 0-40.96-18.3296-40.96-40.96s18.3296-40.96 40.96-40.96h325.12c22.6304 0 40.96 18.3296 40.96 40.96s-18.3296 40.96-40.96 40.96zM626.1248 494.3872h-325.12c-22.6304 0-40.96-18.3296-40.96-40.96s18.3296-40.96 40.96-40.96h325.12c22.6304 0 40.96 18.3296 40.96 40.96s-18.3296 40.96-40.96 40.96zM456.704 656.7936H301.0048c-22.6304 0-40.96-18.3296-40.96-40.96s18.3296-40.96 40.96-40.96H456.704c22.6304 0 40.96 18.3296 40.96 40.96s-18.3296 40.96-40.96 40.96z" fill="#FFFFFF" p-id="3687"></path><path d="M736.6144 748.4416m-189.952 0a189.952 189.952 0 1 0 379.904 0 189.952 189.952 0 1 0-379.904 0Z" fill="#4BE2AC" p-id="3688"></path><path d="M736.8704 558.7456c-104.9088 0-189.952 85.0432-189.952 189.952 0 99.9936 77.2608 181.8624 175.36 189.3376 58.368-14.08 101.7856-66.6624 101.7856-129.3824v-228.8128a190.50496 190.50496 0 0 0-87.1936-21.0944z" fill="#06CC76" p-id="3689"></path><path d="M820.4288 826.0096h-104.96c-22.6304 0-40.96-18.3296-40.96-40.96v-93.2864c0-22.6304 18.3296-40.96 40.96-40.96s40.96 18.3296 40.96 40.96v52.3264h64c22.6304 0 40.96 18.3296 40.96 40.96s-18.3296 40.96-40.96 40.96z" fill="#FFFFFF" p-id="3690"></path></svg>