<svg t="1653405632015" class="icon" viewBox="0 0 1024 1024" version="1.1" xmlns="http://www.w3.org/2000/svg" p-id="3670" width="200" height="200"><path d="M695.04 938.7008H229.7344c-74.8032 0-135.424-59.5968-135.424-133.12V220.3648c0-73.5232 60.6208-133.12 135.424-133.12h465.3056c74.8032 0 135.424 59.5968 135.424 133.12v585.2672c0 73.472-60.6208 133.0688-135.424 133.0688z" fill="#FFAC3E" p-id="3671"></path><path d="M620.1344 328.9088h-325.12c-22.6304 0-40.96-18.3296-40.96-40.96s18.3296-40.96 40.96-40.96h325.12c22.6304 0 40.96 18.3296 40.96 40.96s-18.3296 40.96-40.96 40.96zM620.1344 491.3152h-325.12c-22.6304 0-40.96-18.3296-40.96-40.96s18.3296-40.96 40.96-40.96h325.12c22.6304 0 40.96 18.3296 40.96 40.96s-18.3296 40.96-40.96 40.96zM450.7136 653.6704h-155.648c-22.6304 0-40.96-18.3296-40.96-40.96s18.3296-40.96 40.96-40.96h155.6992c22.6304 0 40.96 18.3296 40.96 40.96s-18.3808 40.96-41.0112 40.96z" fill="#FFFFFF" p-id="3672"></path><path d="M764.0064 550.656l40.0384 81.1008a32.57856 32.57856 0 0 0 24.5248 17.8176l89.4976 13.0048c26.6752 3.8912 37.376 36.7104 18.0224 55.5008l-64.768 63.1296a32.57344 32.57344 0 0 0-9.3696 28.8256l15.3088 89.1392c4.5568 26.5728-23.3472 46.848-47.2064 34.304l-80.0256-42.0864a32.6912 32.6912 0 0 0-30.3104 0l-80.0256 42.0864c-23.8592 12.544-51.7632-7.7312-47.2064-34.304l15.3088-89.1392c1.792-10.5472-1.6896-21.3504-9.3696-28.8256l-64.768-63.1296c-19.3024-18.8416-8.6528-51.6608 18.0224-55.5008l89.4976-13.0048c10.5984-1.536 19.7632-8.192 24.5248-17.8176l40.0384-81.1008c11.8272-24.1664 46.336-24.1664 58.2656 0z" fill="#FFB357" p-id="3673"></path><path d="M830.464 649.8816l-1.9456-0.256c-10.5984-1.536-19.7632-8.192-24.5248-17.8176l-40.0384-81.1008c-11.9296-24.1664-46.4384-24.1664-58.368 0L665.6 631.7568a32.57856 32.57856 0 0 1-24.5248 17.8176l-89.4976 13.0048c-26.6752 3.8912-37.376 36.7104-18.0224 55.5008l64.768 63.1296a32.57344 32.57344 0 0 1 9.3696 28.8256l-15.3088 89.1392c-4.5568 26.5728 23.3472 46.848 47.2064 34.304l80.0256-42.0864c9.472-4.9664 20.7872-4.9664 30.3104 0l31.5904 16.64c29.8496-24.4224 48.896-61.2352 48.896-102.4v-155.7504z" fill="#FF7C0E" p-id="3674"></path></svg>