<svg t="1655805626235" class="icon" viewBox="0 0 1024 1024" version="1.1" xmlns="http://www.w3.org/2000/svg" p-id="3328" width="200" height="200"><path d="M775.168 790.1696c-9.3696-124.416-83.2512-231.1168-187.5968-287.3856 39.6288-41.728 64-98.0992 64-160.2048 0-128.512-104.192-232.704-232.704-232.704S186.1632 214.0672 186.1632 342.5792c0 62.0544 24.32 118.3744 63.8976 160.0512-112.1792 60.2624-188.5184 178.6368-188.5184 314.88 0 20.6336 1.7408 40.8064 5.12 60.4672a32.9728 32.9728 0 0 0 32.512 27.3408h639.3344c15.9744 0 29.7984-11.4688 32.512-27.1872 4.9152-28.3136 6.4512-57.7536 4.1472-87.9616z" fill="#80B7F9" p-id="3329"></path><path d="M963.6864 734.72c-7.5776-100.4032-67.1744-186.5216-151.3984-231.936 32-33.6896 51.6608-79.1552 51.6608-129.28 0-103.7312-84.0704-187.8016-187.8016-187.8016S488.3968 269.824 488.3968 373.504c0 50.0736 19.6096 95.5392 51.5584 129.1776-90.5216 48.64-152.1664 144.128-152.1664 254.1056 0 16.64 1.4336 32.9216 4.1472 48.7936 2.2016 12.7488 13.312 22.0672 26.2656 22.0672h515.9424c12.9024 0 24.064-9.216 26.2144-21.9648 3.9424-22.8352 5.1712-46.592 3.328-70.9632z" fill="#80B7F9" p-id="3330"></path><path d="M775.168 790.1696c-9.3696-124.416-83.2512-231.1168-187.5968-287.3856 39.6288-41.728 64-98.0992 64-160.2048 0-53.5552-18.1248-102.8096-48.4864-142.1312-67.4304 28.5184-114.688 95.232-114.688 173.056 0 50.0736 19.6096 95.5392 51.5584 129.1776-90.5216 48.64-152.1664 144.128-152.1664 254.1056 0 16.64 1.4336 32.9216 4.1472 48.7936 2.2016 12.7488 13.312 22.0672 26.2656 22.0672h357.8368c0.3584-12.3392 0.1024-24.832-0.8704-37.4784z" fill="#3E8BF8" p-id="3331"></path><path d="M418.7136 817.408c-15.7184 0-30.5664-6.8608-40.7552-18.7904l-58.1632-68.1472a53.56544 53.56544 0 0 1-10.9056-49.1008l32.9216-119.1936c6.4-23.1424 27.648-39.3216 51.6608-39.3216h46.4896c23.7056 0 44.288 15.2064 51.2512 37.8368l36.7104 119.4496c5.4272 17.6128 1.4848 36.5056-10.4448 50.5344l-57.9584 67.8912c-10.24 11.9808-25.088 18.8416-40.8064 18.8416zM380.5184 691.2l38.1952 44.7488 37.7856-44.2368-29.8496-97.1776h-19.4048L380.5184 691.2z m82.432-7.0656l-0.0512 0.0512 0.0512-0.0512z" fill="#F7F8F8" p-id="3332"></path></svg>