<svg t="1655806059230" class="icon" viewBox="0 0 1024 1024" version="1.1" xmlns="http://www.w3.org/2000/svg" p-id="10289" width="200" height="200"><path d="M693.248 450.56c9.898667 11.605333 21.504 25.258667 35.157333 40.96 13.653333 15.701333 25.258667 29.354667 38.912 44.714667 17.408 19.456 31.061333 36.864 43.008 52.565333s19.456 29.354667 27.306667 43.008c5.802667 13.653333 11.605333 25.258667 13.653333 35.157333 2.048 11.605333 3.754667 21.504 3.754667 33.109334V750.933333c0 15.701333-2.048 29.354667-7.850667 43.008-5.802667 11.605333-11.605333 23.552-21.504 33.109334-9.898667 9.898667-19.456 15.701333-31.061333 21.504-11.605333 5.802667-23.552 7.850667-36.864 7.850666H274.090667c-13.653333 0-27.306667-2.048-40.96-7.850666-13.653333-3.754667-23.552-11.605333-33.109334-19.456s-17.408-19.456-23.552-31.061334c-5.802667-11.605333-9.898667-25.258667-9.898666-40.96V696.32c0-11.605333 2.048-25.258667 3.754666-35.157333 2.048-11.605333 5.802667-23.552 13.653334-35.157334 5.802667-15.701333 13.653333-27.306667 25.258666-43.008 11.605333-13.653333 25.258667-29.354667 40.96-46.762666 13.653333-15.701333 27.306667-29.354667 43.008-44.714667 13.653333-15.701333 27.306667-29.354667 38.912-40.96l15.701334-15.701333c15.701333-16.042667 37.205333-25.258667 59.733333-25.258667h211.626667c24.234667 0 47.445333 10.581333 63.488 29.013333l10.581333 11.946667z" fill="#06CC76" opacity=".6" p-id="10290"></path><path d="M512 707.925333c13.653333 0 27.306667-2.048 38.912-7.850666 11.605333-5.802667 23.552-11.605333 31.061333-21.504 9.898667-9.898667 15.701333-19.456 21.504-31.061334 5.802667-11.605333 7.850667-25.258667 7.850667-38.912s-2.048-27.306667-7.850667-38.912c-5.802667-11.605333-11.605333-23.552-21.504-31.061333-9.898667-9.898667-19.456-15.701333-31.061333-21.504s-25.258667-7.850667-38.912-7.850667-27.306667 2.048-38.912 7.850667c-11.605333 5.802667-23.552 11.605333-31.061333 21.504-9.898667 9.898667-15.701333 19.456-21.504 31.061333s-7.850667 25.258667-7.850667 38.912 2.048 27.306667 7.850667 38.912c5.802667 11.605333 11.605333 23.552 21.504 31.061334 9.898667 9.898667 19.456 15.701333 31.061333 21.504 11.605333 5.802667 25.258667 7.850667 38.912 7.850666z" fill="#FFFFFF" p-id="10291"></path><path d="M844.8 248.149333c35.498667 11.946667 59.050667 45.056 59.050667 82.602667v21.162667c0 13.653333-3.754667 25.258667-13.653334 35.157333-9.898667 9.557333-21.504 13.653333-35.157333 13.653333H757.76c-13.653333 0-25.258667-3.754667-35.157333-13.653333-9.557333-9.898667-13.653333-21.504-13.653334-35.157333V302.762667H315.050667V351.573333c0 13.653333-4.096 25.258667-13.653334 35.157334-9.898667 9.557333-21.504 13.653333-35.157333 13.653333H168.96c-13.653333 0-25.258667-3.754667-35.157333-13.653333-9.898667-9.898667-13.653333-21.504-13.653334-35.157334v-21.162666c0-37.205333 23.552-70.656 59.050667-82.602667 89.088-30.037333 205.482667-48.128 332.8-48.128s243.712 18.432 332.8 48.469333z" fill="#06CC76" opacity=".6" p-id="10292"></path><path d="M844.8 248.149333c35.498667 11.946667 59.050667 45.056 59.050667 82.602667v21.162667c0 13.653333-3.754667 25.258667-13.653334 35.157333-9.898667 9.557333-21.504 13.653333-35.157333 13.653333H757.76c-13.653333 0-25.258667-3.754667-35.157333-13.653333-9.557333-9.898667-13.653333-21.504-13.653334-35.157333V302.762667H315.050667V351.573333c0 13.653333-4.096 25.258667-13.653334 35.157334-9.898667 9.557333-21.504 13.653333-35.157333 13.653333H168.96c-13.653333 0-25.258667-3.754667-35.157333-13.653333-9.898667-9.898667-13.653333-21.504-13.653334-35.157334v-21.162666c0-37.205333 23.552-70.656 59.050667-82.602667 89.088-30.037333 205.482667-48.128 332.8-48.128s243.712 18.432 332.8 48.469333z" fill="#06CC76" opacity=".6" p-id="10293"></path></svg>