<svg t="1653319157645" class="icon" viewBox="0 0 1024 1024" version="1.1" xmlns="http://www.w3.org/2000/svg" p-id="5603" width="200" height="200"><path d="M338.5856 262.1952l-288.3584 506.88c-29.3888 51.6096 7.936 115.7632 67.328 115.7632H694.272c59.392 0 96.7168-64.1024 67.328-115.7632l-288.3584-506.88c-29.696-52.224-104.96-52.224-134.656 0z" fill="#4BE2AC" p-id="5604"></path><path d="M748.9536 547.1232l-153.9072 270.5408c-17.0496 29.952 4.608 67.1744 39.0656 67.1744h307.8144c34.4576 0 56.1152-37.2224 39.0656-67.1744l-153.9072-270.5408c-17.2544-30.3104-60.928-30.3104-78.1312 0z" fill="#4BE2AC" p-id="5605"></path><path d="M759.9104 766.1568l-67.7888-119.1936-96.1024 168.96c-17.408 30.6176 4.352 68.864 39.168 68.864h57.2416c60.0064 0.0512 97.4848-65.8944 67.4816-118.6304z" fill="#06CC76" p-id="5606"></path><path d="M707.5328 294.7584a82.5856 81.3568 90 1 0 162.7136 0 82.5856 81.3568 90 1 0-162.7136 0Z" fill="#4BE2AC" p-id="5607"></path><path d="M217.7024 771.9424c-6.7584 0-13.568-1.6896-19.8656-5.1712-19.7632-11.008-26.88-35.9424-15.872-55.7056l95.5904-171.7248c11.008-19.7632 35.9424-26.88 55.7056-15.872 19.7632 11.008 26.88 35.9424 15.872 55.7056l-95.5904 171.7248a40.92928 40.92928 0 0 1-35.84 21.0432z" fill="#FFFFFF" p-id="5608"></path></svg>