<svg t="1653318886003" class="icon" viewBox="0 0 1024 1024" version="1.1" xmlns="http://www.w3.org/2000/svg" p-id="4411" width="200" height="200"><path d="M757.8624 939.9296H263.8336c-73.5232 0-133.12-59.5968-133.12-133.12V301.2608c0-73.5232 59.5968-133.12 133.12-133.12h494.0288c73.5232 0 133.12 59.5968 133.12 133.12v505.5488c0 73.5232-59.5968 133.12-133.12 133.12z" fill="#FFD05C" p-id="4412"></path><path d="M638.5664 298.9056h-255.488c-54.7328 0-99.1232-44.3904-99.1232-99.1232v-36.8128c0-54.7328 44.3904-99.1232 99.1232-99.1232h255.488c54.7328 0 99.1232 44.3904 99.1232 99.1232v36.8128c0 54.784-44.3904 99.1232-99.1232 99.1232z" fill="#FFD05C" p-id="4413"></path><path d="M284.0064 168.1408v30.9248c0 55.1424 44.6976 99.84 99.84 99.84h254.0032c55.1424 0 99.84-44.6976 99.84-99.84v-30.9248H284.0064z" fill="#FCA235" p-id="4414"></path><path d="M338.944 672.512c-10.3936 0-20.8384-3.9424-28.8256-11.8784-16.0768-15.9232-16.1792-41.8304-0.3072-57.9072l115.3024-116.4288c8.0384-8.1408 19.2512-12.4416 30.5664-12.1344 11.4176 0.4096 22.1696 5.5808 29.6448 14.2848l64 74.5984 106.5984-92.16c17.1008-14.7968 43.008-12.9024 57.7536 4.1984 14.7968 17.1008 12.9024 42.9568-4.1984 57.7536l-137.728 119.0912a41.0112 41.0112 0 0 1-29.8496 9.8816 41.19552 41.19552 0 0 1-28.0576-14.1824L452.096 575.5392l-84.0192 84.8384a40.93952 40.93952 0 0 1-29.1328 12.1344z" fill="#FFFFFF" p-id="4415"></path></svg>