<svg t="1653319018096" class="icon" viewBox="0 0 1024 1024" version="1.1" xmlns="http://www.w3.org/2000/svg" p-id="5305" width="200" height="200"><path d="M749.6192 945.152H261.2224c-73.5232 0-133.12-59.5968-133.12-133.12V312.1664c0-73.5232 59.5968-133.12 133.12-133.12h488.3968c73.5232 0 133.12 59.5968 133.12 133.12v499.8656c0 73.472-59.5968 133.12-133.12 133.12z" fill="#FFAC3E" p-id="5306"></path><path d="M631.4496 308.8896H379.3408c-54.7328 0-99.1232-44.3904-99.1232-99.1232v-35.072c0-54.7328 44.3904-99.1232 99.1232-99.1232h252.1088c54.7328 0 99.1232 44.3904 99.1232 99.1232v35.072c0 54.7328-44.3392 99.1232-99.1232 99.1232z" fill="#FFAC3E" p-id="5307"></path><path d="M280.2688 179.0464v30.72c0 54.7328 44.3904 99.1232 99.1232 99.1232h252.1088c54.7328 0 99.1232-44.3904 99.1232-99.1232v-30.72H280.2688z" fill="#FF7C0E" p-id="5308"></path><path d="M467.0464 684.3392c-10.496 0-20.992-3.9936-28.9792-11.9808l-79.9232-79.9232c-15.9744-15.9744-15.9744-41.9328 0-57.9072 16.0256-15.9744 41.9328-15.9744 57.9072 0l51.712 51.712 127.1296-120.3712a40.94464 40.94464 0 0 1 57.9072 1.5872 40.94464 40.94464 0 0 1-1.5872 57.9072l-156.0576 147.7632a40.60672 40.60672 0 0 1-28.1088 11.2128z" fill="#FFFFFF" p-id="5309"></path></svg>